<svg xmlns="http://www.w3.org/2000/svg" class="w-full max-w-120px h-16 relative fill-current logo-click-listener" viewBox="0 0 121 40"><path fill="#CE0A24" d="M99.28 30.58l-.02-.3v-.03-.03c0-.56.23-1.38.3-1.57l.01-.03c.22-.6.31-.86.6-1.3.5-.72.73-.96 1.26-1.31a2.86 2.86 0 011.17-.4h.01a3.04 3.04 0 01.83 0l.02.01c.05 0 .55.05 1 .5.48.45.75 1.08.8 1.85.03.39 0 .72-.09 1.25-.17.95-.51 1.6-.77 1.97-.4.59-.74.99-1.29 1.29-.26.15-.75.43-1.57.43-.21 0-.43-.02-.66-.06-.26-.04-.62-.27-.64-.28a3.33 3.33 0 01-.21-.18c-.42-.42-.66-1-.75-1.81zm8.83-5.37c-1.42-1.4-3.56-1.61-4.7-1.61a7.7 7.7 0 00-1.06.06c-2.77.41-4.8 1.45-6.05 3.1a5.61 5.61 0 00-1.2 3.8c.2 2.33 1.6 3.72 4.12 4.13.03.01.78.15 1.87.15 1.3 0 2.49-.19 3.52-.56a6.57 6.57 0 001.85-.99c1.4-1 2-2.15 2.03-2.2.87-1.65 1.52-4.01-.36-5.86l-.02-.02zm2.6-1.02a1.43 1.43 0 01-.47.12.42.42 0 01-.31-.1.42.42 0 01-.07-.53c.71-1.05.55-2.64.34-3.4v-.02l-.01-.09a2.48 2.48 0 01-.07-.54c0-.83.5-1.15.57-1.19a.93.93 0 01.14-.07l.03-.02a5.35 5.35 0 01.39-.12 1.84 1.84 0 011.11.14c.2.1.38.25.53.43.14.18.24.4.3.64.08.33.1.72.04 1.17 0 0-.06.54-.19.9l-.12.37a3.64 3.64 0 01-.4.8l-.07.09c-.12.18-.17.26-.34.44l-.14.13-.06.06a3.66 3.66 0 01-1.2.79zM121 31.15c.02.77-.4 1.62-1.13 2.27-.66.6-1.6 1.05-2.67 1.27-.25.06-1.17.24-2.32.24-.87 0-1.65-.1-2.34-.3v.01l-.2-.06a3.95 3.95 0 01-1.68-1 1.65 1.65 0 01-.2-1.94c.23-.41.56-.72.95-.87.65-.26 1.28-.28 1.48-.28H113.01c.27 0 .79.07 1 .35.08.1.1.23.07.36-.01.07-.07.19-.24.28-.48.25-.82.46-.88.7-.03.12 0 .24.08.38.17.29.74.46 1.58.47h.04c.85 0 1.53-.23 1.88-.63a.8.8 0 00.2-.59.71.71 0 00-.06-.22c-.38-.75-1.43-1.71-3.3-3.04a4.4 4.4 0 01-.18-.13c-1.16-.82-1.13-1.5-1.11-1.73v-.03-.03c0-.29.08-.48.09-.48l.01-.03c.46-1.52 2.2-1.97 3.21-2.1.38-.05.67-.06.82-.07h.56c.82 0 1.45.08 1.73.15.16.04.3.06.43.06.4 0 .55-.2.68-.38l.02-.03c.1-.14.32-.31.6-.29h.04c.3.03.47.17.44.87-.02.49-.16 2-.19 2.3-.02.27-.09.45-.2.52a.57.57 0 01-.39.1c-.28-.02-.5-.41-.54-.5-.16-.4-.76-.88-1.97-.88h-.08c-.61.02-.83.12-.9.21-.05.05-.05.1-.04.18v.02c.03.18.37.42.65.6l.3.2c.6.46 1.08.8 1.46 1.08.43.3.74.53 1 .74.4.33 1.15.94 1.18 2.25zm-36.28 3.52zm-1.27-5.12c.02-.29.06-.55.12-.8l.01-.04c.09-.31.22-.6.4-.9a4.53 4.53 0 014-2.17c1.11 0 1.4.47 1.48.69v.16c.01.21-.22 2.26-.38 3.13-.06.34-.21 1-.5 1.56-.11.2-.23.36-.36.49a3.18 3.18 0 01-2.47 1.14c-.44 0-.86-.16-1.28-.49-.53-.42-1.09-1.37-1.02-2.77zm10.5 2.22a.83.83 0 00-.2-.03h-.03c-.24 0-.42.12-.57.21-.14.1-.27.17-.42.17a.1.1 0 01-.08-.04c-.18-.23-.04-1.08 0-1.4l.02-.1c.08-.47.16-1.03.26-1.76l.17-1.1c.14-.9.49-2.72.7-3.68.56-2.59 1.2-4.3 1.51-5.12.15-.4.2-.52.2-.6 0-.13-.02-.52-.35-.7a.43.43 0 00-.2-.05c-.4 0-.97.39-1.29.62-2.47 1.81-3.47 4.98-3.82 6.16a7.9 7.9 0 00-3.12-.67h-.03a10.1 10.1 0 00-4.05.87 6.4 6.4 0 00-3.2 3.29c-.14.35-1.26 3.53 1.25 5.58l.14.1.06.05.22.16.08.05.1.05c.3.19.6.34.94.48l.02.01a7.35 7.35 0 002.46.46h.08a7.14 7.14 0 003.31-.8V34l.17-.1c.37-.24.61-.47.75-.63l.07.13c.21.38.95 1.09 2.2 1.11.2 0 .4 0 .59-.03.72-.09 2-.44 2.4-1.73.05-.17.11-.5-.02-.73a.49.49 0 00-.31-.24zM46.75 21.1l-2.2 12.66c0 .1-.08.49-.08.5-.06.32-.4.54-.69.54h-.02c-.7 0-1.48-1.04-1.52-1.08l-.08-.12c-.86-1.1-5.63-8.47-6.55-9.89l-1.33 7.78c0 .01-.26 1.17.4 1.46 1 .44 1 .8.91 1.1-.04.15-.13.35-.5.4a.48.48 0 01-.12.02h-.03l-.28-.03a3.61 3.61 0 00-.28-.03h-.07c-.25-.02-1-.08-2.08-.08-.74 0-1.5.06-2.01.1l-.54.04h-.02s-.05.02-.12.02c-.13 0-.38-.03-.55-.22-.13-.14-.18-.34-.16-.6.04-.36.5-.47.94-.58l.04-.01c.93-.23 1.25-1.32 1.34-1.77v-.03c.19-1.06.6-3.64.98-5.92l.71-4.37c.13-.72-.08-1.23-.65-1.6h-.02a4.1 4.1 0 01-.65-.35c-.16-.1-.34-.38-.33-.6a.53.53 0 01.4-.48h.02l.03-.01h.02s.18-.04.49-.07h.03a12.36 12.36 0 011.89-.04h.05a4.19 4.19 0 01.73.06c1.78.29 3.4 1.8 5.24 4.88.68 1.13 1.51 2.47 2.19 3.55l.62 1.01L43.95 21s.19-1.32-.72-1.7c-.52-.2-.82-.55-.77-.9.04-.4.35-.6.8-.54h.03l.17.02.27.03h.07a26.39 26.39 0 004.8-.06c.2 0 .39.13.46.31l.02.07c.1.52-.27.9-1.1 1.11-1.05.27-1.22 1.69-1.22 1.7l-.01.06h-.01zm31.19 7.54v.07c0 .32-.12 1.77-.9 2.92a8.1 8.1 0 01-3.13 2.67 5.67 5.67 0 01-1.82.7c-.03 0-.16 0-.24-.03l-.02-.01c-.12-.05-.29-.12-.3-.38 0-.05.03-.14.17-.38.38-.52 1.64-2.38 1.97-5.08.19-1.5.02-2.55-.49-3.1-.32-.36-.8-.53-1.45-.53h-.26c-1.74.11-2.55 1.75-2.73 2.6l-.6 3.44c-.03.33-.05 1.12.51 1.32.54.19.8.53.72.93-.06.3-.28.49-.6.5-.44.02-.87 0-1.28-.03l-.72-.03a84.94 84.94 0 00-2.13 0h-.27a9.66 9.66 0 01-.48.01c-.2.01-.47.02-.74.01-.3 0-.44-.04-.53-.12-.16-.12-.17-.34-.17-.43 0-.22.08-.41.22-.57.15-.16.34-.21.53-.26.34-.09.69-.18.9-1.06l.49-3a218.56 218.56 0 01.42-2.74c0-.01-.07-.04-.2-.02-.08 0-1.08.05-1.27-.5-.24-.69.24-.86.47-.94l.06-.02a33.49 33.49 0 013.45-.88l.28-.02c.15 0 .26.03.35.1.38.32.36.78.35 1.16a5.14 5.14 0 013.14-1.4 3.67 3.67 0 01.8-.03c.5.01.95.07 1.08.1a4.87 4.87 0 014.42 5.03zm-20.97-2.17c0 .21-.22 2.22-.38 3.08-.08.43-.32 1.5-.87 2.06a3.13 3.13 0 01-2.43 1.13c-.44 0-.85-.16-1.27-.48-.53-.42-1.07-1.36-1-2.75 0-.28.05-.54.11-.8l.01-.03a4.47 4.47 0 014.34-3.04c1.45 0 1.5.8 1.5.83zm4.41 5.24a.83.83 0 00-.21-.03c-.23 0-.4.11-.56.21-.14.09-.26.17-.41.17h-.03a.1.1 0 01-.07-.04c-.18-.23-.05-1.07 0-1.4l.01-.08c.13-.82.27-1.79.38-2.6l.06-.45c.07-.49.2-1.4.2-1.6.01-.7-.16-.86-.35-1.05l-.05-.05c-.3-.29-.7-.65-1.43-1.07-.18-.1-.46-.26-.7-.23-.2.02-.4.22-.5.4-.05.08-.11.23-.18.41l-.02.04a.42.42 0 01-.05.04c-.05.03-.15-.02-.24-.07a7.78 7.78 0 00-3.73-.58 8.8 8.8 0 00-3.25.83 6.33 6.33 0 00-3.17 3.26c-.13.35-1.24 3.5 1.24 5.52a5 5 0 00.14.11l.05.04.23.16.07.05.1.06c.3.18.6.33.93.47l.19.07v-.02c.4.15.72.23.9.27l.07.02a6.96 6.96 0 001.35.12 7.03 7.03 0 003.26-.79v.01l.17-.1c.38-.24.61-.47.75-.63l.01.04.01-.02.06.12c.22.38.96 1.1 2.25 1.1l.48-.03c.72-.1 1.98-.44 2.37-1.72.05-.17.11-.49-.01-.72a.48.48 0 00-.31-.24z"></path><path fill="#000" d="M21.92 10.37c-.3.46-.8.92-1.15 1.22a5.25 5.25 0 00-.44-2.2c.91.34 1.6.98 1.6.98zm-1.52 9.15c.04-.93.15-3.09.26-4.82.2.26.51.5.94.4.21-.04.7-.18.75-.88.02-.41-.29-.93-1.12-1.8-.04-.06-.11-.11-.19-.17a8.95 8.95 0 001.6-1.86l.09-.17-.14-.12a13.48 13.48 0 00-2.94-1.83l.09-.07c.46-.46 2.36-2.63 1.16-5.54C19.72-.21 16.72-.2 15.13.17a4.72 4.72 0 00-3.45 3.55 4.16 4.16 0 001.16 3.79c.2.18.28.24.31.21-.02.02.04-.25.48-.64.13-.12.9-.8 1.96-.44.6.2.87.52 1.07.95.1.2.15.47.14.7l-.05.04c-.8.48-1.63 1.6-1.43 4.22.23 3.05.45 5.55.59 6.96-.47.01-.9.06-1.3.13.64-2.76.5-5.96-2.55-7.86-2.9-1.81-6.98-1.23-9.55.94C-.07 14.9-.66 18.67.74 21.68a6.71 6.71 0 004.49 3.9c.52.16 1.05.29 1.6.4.06 0 .11-.07.08-.13l-.08-.14a2.75 2.75 0 01-.31-.88c-.2-1.1.16-2.4 1.07-3.09a2.5 2.5 0 013.37.38 5.34 5.34 0 00-.35 3.11c.1.55.21.74.28.95.47 1.45 1.74 2.98 2.18 3.54.67.85 2.56 2.83 3.26 3.55v2.95a7.15 7.15 0 00-2.58 2.69c-.07.16.07.33.25.3a30.88 30.88 0 018.43 0c.18.03.32-.15.24-.3a7.15 7.15 0 00-2.58-2.7v-2.93c.65-.7 2.43-2.7 3.05-3.56.43-.58 2.12-2.76 2.44-4.49.31-1.73.02-5.51-5.18-5.71z"></path><path fill="#CE0A24" d="M17.6 7.86v.03l.02.1v.03c.45-.08.9-.07 1.25-.01a4.42 4.42 0 001.53-2.7 3.77 3.77 0 00-.77-3.2A3.79 3.79 0 0016.52.83a3.95 3.95 0 00-2.72.98 3.39 3.39 0 00-1.24 2.27 4.2 4.2 0 00.1 1.44l.03.15c.07.27.12.45.4.85.35-.33.74-.56 1.17-.67.3-.08.63-.12.95-.12.15 0 .99.12 1.57.58.77.62.8 1.23.83 1.55zm2.53 14.93c-1.37-.12-1.94 1.1-1.96 1.14-.02-.04-.58-1.26-1.96-1.14-1.4.12-2.33 1.83-.44 4.47 1.83 2.56 2.37 2.68 2.4 2.68.04 0 .57-.12 2.4-2.68 1.9-2.64.96-4.35-.44-4.47zm-7.62-9.59a6.1 6.1 0 00-3.14-1.51c-3.08-.52-6.46.83-7.84 3.7a7.13 7.13 0 001.23 7.73 5.49 5.49 0 002.9 1.64c.03 0-.16-.76.03-1.59.22-.93.67-2.03 1.98-2.54 2-.79 3.15.18 3.83.66.44-.49.75-.68 1.22-.92.36-.2.59-.27.93-.35.4-.88.57-2.58.4-3.51-.23-1.18-.4-2.23-1.54-3.31zm9.17.75c.1.18.03.4-.14.5a.36.36 0 01-.44-.12l-.02-.03a.39.39 0 01-.04-.07 1.98 1.98 0 01-.11-.34c-.06-.22-.16-.7-.2-.93-.02-.09-.03-.1-.02-.11a13.24 13.24 0 01.73.77 2.7 2.7 0 01.24.33z"></path><path fill="#fff" d="M20.33 9.4c.25.52.42 1.23.43 2.19.35-.3.86-.76 1.16-1.22 0 0-.68-.64-1.59-.97zm-1.56 1.09a.53.53 0 10-1.06 0 .53.53 0 001.06 0zm.64 0a1.17 1.17 0 11-2.34 0 1.17 1.17 0 012.34 0zm-1.46 2.5c.1-.22.36-.32.56-.22.18.08.27.3.21.5v.02a.57.57 0 01-.05.1c-.05.08-.12.2-.23.34-.17.22-.54.64-.73.85-.07.08-.08.1-.1.09l.01-.13c.04-.29.13-.88.18-1.1a3.19 3.19 0 01.15-.45zM10.13 12.97a.58.58 0 100 1.16.58.58 0 000-1.16zM11.77 15.58a.58.58 0 100-1.16.58.58 0 000 1.16zM12.34 16.47a.58.58 0 100 1.17.58.58 0 000-1.17zM4.08 21.84a.58.58 0 100 1.17.58.58 0 000-1.17zM2.84 20.15a.58.58 0 100 1.16.58.58 0 000-1.16zM2.93 18.69a.58.58 0 10-1.16 0 .58.58 0 001.16 0zM2.62 17.16a.58.58 0 100-1.16.58.58 0 000 1.16zM3.75 15.33a.58.58 0 100-1.16.58.58 0 000 1.16zM5.64 12.94a.58.58 0 100 1.16.58.58 0 000-1.16zM7.9 12.5a.58.58 0 100 1.17.58.58 0 000-1.16zM11.93 18.53a.58.58 0 100 1.16.58.58 0 000-1.16z"></path></svg>