<?xml version="1.0" encoding="UTF-8"?>
<svg version="1.1" xmlns="http://www.w3.org/2000/svg" width="512" height="512">
<path d="M0 0 C1.76849194 1.37232903 3.51901982 2.76814863 5.25 4.1875 C6.09175781 4.86554687 6.93351562 5.54359375 7.80078125 6.2421875 C18.32198883 15.17621446 25.44911802 26.02278968 32.03320312 38.00927734 C34.53342444 42.48499455 37.15542843 46.89106866 39.75 51.3125 C44.94792302 60.1996343 50.08759634 69.11884791 55.1875 78.0625 C60.3744068 87.15830979 65.57681513 96.24462275 70.8125 105.3125 C71.73579102 106.91158203 71.73579102 106.91158203 72.67773438 108.54296875 C74.53470194 111.75807523 76.39223579 114.97285378 78.25 118.1875 C86.31089304 132.13594368 94.34709426 146.09753888 102.32736206 160.09222412 C106.92394223 168.15013212 111.5632416 176.18167786 116.25 184.1875 C121.2818069 192.78272672 126.25389072 201.4106213 131.1875 210.0625 C138.2027183 222.36439963 145.26595972 234.63788309 152.3515625 246.89941406 C154.34120955 250.34547456 156.32728998 253.7935701 158.3125 257.2421875 C158.98882453 258.4165191 159.66517519 259.59083565 160.34155273 260.76513672 C161.61255644 262.9721143 162.88294771 265.17944476 164.15258789 267.38720703 C167.37387843 272.97781739 170.64803927 278.53090228 173.97924805 284.05664062 C175.42676184 286.48390295 176.79554043 288.94373111 178.125 291.4375 C182.79777151 300.07613655 187.70216402 308.57698574 192.69921875 317.03125 C193.31410156 318.07514893 193.92898438 319.11904785 194.5625 320.19458008 C195.7830516 322.26490894 197.00808603 324.33260364 198.23828125 326.3972168 C211.02004041 348.10077281 217.16969418 371.22792471 212.5859375 396.53125 C211.70969842 399.91429481 210.63019967 402.97935732 209.25 406.1875 C208.5384375 407.92966797 208.5384375 407.92966797 207.8125 409.70703125 C203.72129856 418.78438445 198.30541905 425.29074855 191.25 432.1875 C190.40888672 433.07695313 190.40888672 433.07695313 189.55078125 433.984375 C173.68242688 449.47788635 148.85552256 451.3419707 128.08361816 451.32794189 C126.54529035 451.33052906 125.00696321 451.33354319 123.46863699 451.3369453 C119.25759957 451.34497733 115.04657922 451.34680274 110.83553505 451.34754276 C106.28726372 451.34939997 101.73900111 451.35695064 97.19073486 451.36367798 C87.252428 451.37723493 77.31412519 451.38328193 67.37581062 451.38768864 C61.16453593 451.39045559 54.95326278 451.39469377 48.74198914 451.39919281 C31.52832385 451.41138215 14.3146598 451.42168205 -2.8990097 451.4250679 C-3.99980367 451.42528747 -5.10059763 451.42550703 -6.23474899 451.42573325 C-7.33810383 451.42595153 -8.44145867 451.42616981 -9.5782485 451.4263947 C-11.81388442 451.42683816 -14.04952033 451.42728472 -16.28515625 451.42773438 C-17.39409738 451.4279558 -18.50303852 451.42817723 -19.64558393 451.42840537 C-37.60402294 451.43235123 -55.56242132 451.4498003 -73.52084464 451.4730939 C-91.97996583 451.49684271 -110.43906666 451.50927136 -128.89820337 451.51043582 C-139.25362519 451.51135061 -149.60899406 451.51705337 -159.96440125 451.53525543 C-168.7841527 451.55070414 -177.60383485 451.55574885 -186.42359728 451.54751733 C-190.91785949 451.54362763 -195.41198232 451.54445761 -199.90622711 451.55857468 C-204.03204794 451.57141514 -208.15762611 451.57002836 -212.28344709 451.55798396 C-213.76463056 451.55604436 -215.24583183 451.55902355 -216.7269904 451.56782833 C-239.01997627 451.69180579 -259.79602132 446.8746564 -276.7109375 431.38671875 C-290.48113903 416.53494966 -297.36841725 399.2831584 -297.1875 379 C-297.18137695 377.82324707 -297.17525391 376.64649414 -297.16894531 375.43408203 C-296.94225021 362.70951178 -294.90223205 350.48189614 -288.75 339.1875 C-288.12222656 338.03378906 -287.49445313 336.88007813 -286.84765625 335.69140625 C-280.60016644 324.37285619 -274.00915456 313.23512137 -267.328125 302.16796875 C-266.93625 301.51836182 -266.544375 300.86875488 -266.140625 300.19946289 C-265.0809284 298.44638177 -264.01719246 296.69574408 -262.953125 294.9453125 C-260.62560173 291.04064299 -258.47384296 287.04357701 -256.30761719 283.04785156 C-253.83430745 278.5059555 -251.29532604 274.00183173 -248.75 269.5 C-247.91251221 268.01850464 -247.91251221 268.01850464 -247.05810547 266.50708008 C-242.47690555 258.42587404 -237.81286696 250.39492938 -233.12084961 242.37768555 C-228.82533638 235.03752106 -224.55949506 227.68084045 -220.3125 220.3125 C-219.69076904 219.23395752 -219.06903809 218.15541504 -218.4284668 217.04418945 C-216.53518248 213.75889224 -214.64248083 210.47326011 -212.75 207.1875 C-204.87337411 193.51195686 -196.97879908 179.84789042 -189.01708984 166.22167969 C-182.85080946 155.66129718 -176.7450405 145.06623234 -170.64111328 134.46972656 C-166.88971976 127.95878743 -163.13309006 121.45086806 -159.37744141 114.94238281 C-156.23817754 109.50164664 -153.10018503 104.06018523 -149.96484375 98.6171875 C-142.82165204 86.219478 -135.65956475 73.83339732 -128.42578125 61.48828125 C-126.12264839 57.55363148 -123.84120943 53.6076041 -121.57835388 49.6497345 C-106.39805221 23.1123198 -90.46424086 -2.03614128 -59.046875 -10.8515625 C-38.41737585 -15.39344812 -17.48686808 -12.3292244 0 0 Z " fill="#E21B1B" transform="translate(297.75,36.8125)"/>
<path d="M0 0 C1.76849194 1.37232903 3.51901982 2.76814863 5.25 4.1875 C6.09175781 4.86554687 6.93351562 5.54359375 7.80078125 6.2421875 C18.32198883 15.17621446 25.44911802 26.02278968 32.03320312 38.00927734 C34.53342444 42.48499455 37.15542843 46.89106866 39.75 51.3125 C44.94792302 60.1996343 50.08759634 69.11884791 55.1875 78.0625 C60.3744068 87.15830979 65.57681513 96.24462275 70.8125 105.3125 C71.73579102 106.91158203 71.73579102 106.91158203 72.67773438 108.54296875 C74.53470194 111.75807523 76.39223579 114.97285378 78.25 118.1875 C86.31089304 132.13594368 94.34709426 146.09753888 102.32736206 160.09222412 C106.92394223 168.15013212 111.5632416 176.18167786 116.25 184.1875 C121.2818069 192.78272672 126.25389072 201.4106213 131.1875 210.0625 C138.2027183 222.36439963 145.26595972 234.63788309 152.3515625 246.89941406 C154.34120955 250.34547456 156.32728998 253.7935701 158.3125 257.2421875 C158.98882453 258.4165191 159.66517519 259.59083565 160.34155273 260.76513672 C161.61255644 262.9721143 162.88294771 265.17944476 164.15258789 267.38720703 C167.37387843 272.97781739 170.64803927 278.53090228 173.97924805 284.05664062 C175.42676184 286.48390295 176.79554043 288.94373111 178.125 291.4375 C182.79777151 300.07613655 187.70216402 308.57698574 192.69921875 317.03125 C193.31410156 318.07514893 193.92898438 319.11904785 194.5625 320.19458008 C195.7830516 322.26490894 197.00808603 324.33260364 198.23828125 326.3972168 C211.02004041 348.10077281 217.16969418 371.22792471 212.5859375 396.53125 C211.70969842 399.91429481 210.63019967 402.97935732 209.25 406.1875 C208.5384375 407.92966797 208.5384375 407.92966797 207.8125 409.70703125 C203.72129856 418.78438445 198.30541905 425.29074855 191.25 432.1875 C190.40888672 433.07695313 190.40888672 433.07695313 189.55078125 433.984375 C173.68242688 449.47788635 148.85552256 451.3419707 128.08361816 451.32794189 C126.54529035 451.33052906 125.00696321 451.33354319 123.46863699 451.3369453 C119.25759957 451.34497733 115.04657922 451.34680274 110.83553505 451.34754276 C106.28726372 451.34939997 101.73900111 451.35695064 97.19073486 451.36367798 C87.252428 451.37723493 77.31412519 451.38328193 67.37581062 451.38768864 C61.16453593 451.39045559 54.95326278 451.39469377 48.74198914 451.39919281 C31.52832385 451.41138215 14.3146598 451.42168205 -2.8990097 451.4250679 C-3.99980367 451.42528747 -5.10059763 451.42550703 -6.23474899 451.42573325 C-7.33810383 451.42595153 -8.44145867 451.42616981 -9.5782485 451.4263947 C-11.81388442 451.42683816 -14.04952033 451.42728472 -16.28515625 451.42773438 C-17.39409738 451.4279558 -18.50303852 451.42817723 -19.64558393 451.42840537 C-37.60402294 451.43235123 -55.56242132 451.4498003 -73.52084464 451.4730939 C-91.97996583 451.49684271 -110.43906666 451.50927136 -128.89820337 451.51043582 C-139.25362519 451.51135061 -149.60899406 451.51705337 -159.96440125 451.53525543 C-168.7841527 451.55070414 -177.60383485 451.55574885 -186.42359728 451.54751733 C-190.91785949 451.54362763 -195.41198232 451.54445761 -199.90622711 451.55857468 C-204.03204794 451.57141514 -208.15762611 451.57002836 -212.28344709 451.55798396 C-213.76463056 451.55604436 -215.24583183 451.55902355 -216.7269904 451.56782833 C-239.01997627 451.69180579 -259.79602132 446.8746564 -276.7109375 431.38671875 C-290.48113903 416.53494966 -297.36841725 399.2831584 -297.1875 379 C-297.18137695 377.82324707 -297.17525391 376.64649414 -297.16894531 375.43408203 C-296.94225021 362.70951178 -294.90223205 350.48189614 -288.75 339.1875 C-288.12222656 338.03378906 -287.49445313 336.88007813 -286.84765625 335.69140625 C-280.60016644 324.37285619 -274.00915456 313.23512137 -267.328125 302.16796875 C-266.93625 301.51836182 -266.544375 300.86875488 -266.140625 300.19946289 C-265.0809284 298.44638177 -264.01719246 296.69574408 -262.953125 294.9453125 C-260.62560173 291.04064299 -258.47384296 287.04357701 -256.30761719 283.04785156 C-253.83430745 278.5059555 -251.29532604 274.00183173 -248.75 269.5 C-247.91251221 268.01850464 -247.91251221 268.01850464 -247.05810547 266.50708008 C-242.47690555 258.42587404 -237.81286696 250.39492938 -233.12084961 242.37768555 C-228.82533638 235.03752106 -224.55949506 227.68084045 -220.3125 220.3125 C-219.69076904 219.23395752 -219.06903809 218.15541504 -218.4284668 217.04418945 C-216.53518248 213.75889224 -214.64248083 210.47326011 -212.75 207.1875 C-204.87337411 193.51195686 -196.97879908 179.84789042 -189.01708984 166.22167969 C-182.85080946 155.66129718 -176.7450405 145.06623234 -170.64111328 134.46972656 C-166.88971976 127.95878743 -163.13309006 121.45086806 -159.37744141 114.94238281 C-156.23817754 109.50164664 -153.10018503 104.06018523 -149.96484375 98.6171875 C-142.82165204 86.219478 -135.65956475 73.83339732 -128.42578125 61.48828125 C-126.12264839 57.55363148 -123.84120943 53.6076041 -121.57835388 49.6497345 C-106.39805221 23.1123198 -90.46424086 -2.03614128 -59.046875 -10.8515625 C-38.41737585 -15.39344812 -17.48686808 -12.3292244 0 0 Z M-73.78125 36.82421875 C-82.76237788 47.60513614 -89.18069931 60.7438639 -96.12109375 72.86328125 C-98.96306388 77.82555599 -101.83684402 82.76676197 -104.75 87.6875 C-111.51259214 99.13166831 -118.11691003 110.66800071 -124.75 122.1875 C-146.78246435 160.44346093 -146.78246435 160.44346093 -157.3046875 178.19140625 C-157.88331543 179.16754883 -158.46194336 180.14369141 -159.05810547 181.14941406 C-160.14112393 182.97413608 -161.22591819 184.79780601 -162.31298828 186.62011719 C-165.94285837 192.7309698 -169.36808852 198.93667684 -172.75 205.1875 C-177.31267878 213.49868893 -181.9845182 221.67434844 -187.14453125 229.6328125 C-189.2988708 233.06088565 -191.20783785 236.59731391 -193.12109375 240.1640625 C-200.6867329 254.20675963 -208.79047666 267.96069975 -216.77392578 281.76757812 C-218.70474885 285.10918544 -220.63232626 288.45263988 -222.55859375 291.796875 C-228.07403398 301.37104932 -233.59679473 310.94041775 -239.17236328 320.47973633 C-241.4729554 324.416199 -243.76785751 328.35596541 -246.0625 332.29589844 C-247.19761119 334.24095876 -248.33568589 336.18429233 -249.4765625 338.12597656 C-251.1378818 340.95458129 -252.78862086 343.78913035 -254.4375 346.625 C-254.93080811 347.45878174 -255.42411621 348.29256348 -255.93237305 349.15161133 C-263.55184764 362.32831716 -265.85365015 376.50449132 -262.6875 391.5 C-259.94920849 400.93189297 -254.55714387 407.2052838 -246.5703125 412.71484375 C-237.63468626 417.38067629 -229.14275263 417.61585358 -219.2462616 417.56845093 C-217.67136938 417.57191097 -216.09647958 417.57667785 -214.52159482 417.58263266 C-210.20962875 417.59512517 -205.89786257 417.58898022 -201.5858959 417.57967401 C-196.92932574 417.57287651 -192.27278957 417.58336833 -187.6162262 417.59161377 C-178.49937074 417.60494675 -169.38258941 417.60207502 -160.26573106 417.59337585 C-152.85376135 417.58659676 -145.44181239 417.58568356 -138.02984047 417.5889473 C-136.97433656 417.589407 -135.91883265 417.58986669 -134.83134377 417.59034032 C-132.68697235 417.59129952 -130.54260093 417.59227216 -128.39822952 417.5932581 C-108.29390874 417.60181104 -88.18962901 417.59198 -68.08531497 417.575857 C-50.84648823 417.56245975 -33.60772212 417.56477721 -16.36889648 417.57861328 C3.6595399 417.59468085 23.68794028 417.60098093 43.71638221 417.59177649 C45.85371919 417.59082087 47.99105618 417.58987776 50.12839317 417.5889473 C51.17993986 417.58848447 52.23148655 417.58802164 53.31489829 417.58754479 C60.71376905 417.584958 68.11261693 417.58931933 75.51148415 417.59638596 C84.53450599 417.60481448 93.55744957 417.60249264 102.58046249 417.58654372 C107.18143585 417.57867831 111.7822789 417.57553975 116.38325119 417.58549118 C120.60072477 417.59447488 124.81794807 417.58944509 129.03539916 417.57355852 C130.55551952 417.57022614 132.07566131 417.57186977 133.59576771 417.57918589 C147.55171149 417.64116578 159.88867872 416.35323482 170.25390625 406.23046875 C178.83256093 396.86379569 180.72131568 387.40488314 180.48828125 374.98046875 C179.34287073 356.74778654 168.1190233 341.03649731 159.08984375 325.7265625 C155.10144102 318.95743351 151.20098637 312.13926892 147.3125 305.3125 C145.97310604 302.96328497 144.63315656 300.61438723 143.29296875 298.265625 C142.96097473 297.6837442 142.62898071 297.1018634 142.28692627 296.50234985 C138.58255239 290.01302335 134.85671269 283.53613545 131.125 277.0625 C130.22019897 275.49072998 130.22019897 275.49072998 129.29711914 273.88720703 C126.09221405 268.33239746 122.83333805 262.81526351 119.52294922 257.32275391 C118.0749607 254.89388786 116.70522318 252.43270125 115.375 249.9375 C112.1121499 243.89612912 108.70265242 237.9429981 105.28222656 231.99023438 C104.2630418 230.21027687 103.25140942 228.42624736 102.2421875 226.640625 C98.40926484 219.8701294 94.45552146 213.19582696 90.3046875 206.61328125 C88.04344098 202.84310406 85.94518773 199.00425097 83.85205078 195.13891602 C76.04325353 180.75297424 67.92306793 166.53975112 59.64257812 152.42114258 C55.12283776 144.70786202 50.67507597 136.95526213 46.25 129.1875 C39.56382857 117.45542999 32.79071653 105.77615105 25.96777344 94.12304688 C23.64225106 90.14890233 21.32223603 86.17156108 19.00366211 82.19335938 C17.839914 80.19864036 16.6740793 78.20513715 15.50610352 76.21289062 C12.50524292 71.08895791 9.54486998 65.94720827 6.64453125 60.765625 C-2.81436857 43.97363731 -12.65760661 28.0519559 -31.75 21.1875 C-34.55656127 20.78992657 -37.29412422 20.75681794 -40.125 20.8125 C-40.87595947 20.82337646 -41.62691895 20.83425293 -42.40063477 20.84545898 C-55.36024734 21.21782127 -64.93969875 27.50901297 -73.78125 36.82421875 Z " fill="#B71515" transform="translate(297.75,36.8125)"/>
<path d="M0 0 C2.9406806 3.06595623 3.99540258 5.78104959 3.99462891 10.00537109 C3.99675385 10.82260651 3.99887878 11.63984192 4.00106812 12.48184204 C3.99040314 13.3631076 3.97973816 14.24437317 3.96875 15.15234375 C3.96219391 16.08364105 3.95563782 17.01493835 3.94888306 17.97445679 C3.81276069 28.50033629 2.99017659 38.95572597 2.1171875 49.44140625 C1.94152297 51.62843696 1.76666473 53.81553255 1.5925293 56.00268555 C1.2045227 60.857159 0.81132696 65.71117697 0.41455078 70.56494141 C-0.48083776 81.52073326 -1.35422327 92.47828902 -2.22991943 103.43566895 C-2.36535261 105.13012726 -2.50078962 106.82458527 -2.63623047 108.51904297 C-2.73673203 109.77664366 -2.73673203 109.77664366 -2.83926392 111.05965042 C-3.23869467 116.05487298 -3.64009453 121.04993226 -4.04338551 126.04484463 C-4.29852328 129.20558295 -4.55291031 132.3663815 -4.80723381 135.52718544 C-4.92536205 136.9928002 -5.04384164 138.45838669 -5.16272163 139.92394066 C-5.2743598 141.30049762 -5.38540849 142.67710254 -5.49582958 144.05375767 C-5.6540562 146.01763534 -5.81629402 147.98118852 -5.97860718 149.94473267 C-6.17126746 152.61630684 -6.3233887 155.26172139 -6.41812134 157.93588257 C-6.44713437 158.60858783 -6.4761474 159.28129309 -6.50603962 159.97438335 C-6.58205403 161.82015304 -6.63827544 163.6667079 -6.69306946 165.51322937 C-7.740443 171.63930764 -11.32347513 175.3104297 -16.2578125 178.81640625 C-21.06059966 181.21779983 -28.41610433 180.59502437 -33.49609375 179.203125 C-38.36111573 176.75443323 -40.95463381 172.56217598 -43.2578125 167.81640625 C-44.05643994 164.85149238 -44.3200519 161.94573229 -44.52807617 158.88793945 C-44.64139534 157.60542297 -44.64139534 157.60542297 -44.75700378 156.29699707 C-45.00016216 153.48835104 -45.21305342 150.67828795 -45.42578125 147.8671875 C-45.5913035 145.88852708 -45.7587629 143.91002786 -45.92805481 141.9316864 C-46.36856387 136.72487434 -46.78362212 131.51634262 -47.1930542 126.30700684 C-47.60821974 121.0765036 -48.04585461 115.84789373 -48.48242188 110.61914062 C-48.97558439 104.70161196 -49.46681721 98.78400721 -49.93974304 92.86482239 C-50.74552103 82.80001347 -51.61625564 72.74545203 -52.60035229 62.69633961 C-53.16796599 56.88691205 -53.64958484 51.08767465 -53.8828125 45.25390625 C-53.91785889 44.38314453 -53.95290527 43.51238281 -53.98901367 42.61523438 C-54.09451896 39.68254503 -54.17932171 36.74994217 -54.2578125 33.81640625 C-54.29181152 32.62805176 -54.32581055 31.43969727 -54.36083984 30.21533203 C-54.45699033 26.41567944 -54.51873201 22.61690582 -54.5703125 18.81640625 C-54.60012207 17.61685303 -54.62993164 16.4172998 -54.66064453 15.18139648 C-54.73152973 4.59461732 -54.73152973 4.59461732 -50.2578125 -0.18359375 C-36.85409638 -12.38775551 -13.53622392 -11.08185365 0 0 Z " fill="#FEFDFD" transform="translate(281.2578125,160.18359375)"/>
<path d="M0 0 C6.34989873 3.27736708 11.78573169 8.37555202 14.42578125 15.125 C15.25453763 22.95000212 15.51979333 30.73892071 10.42578125 37.125 C4.83797526 42.9072772 0.40102161 45.42104578 -7.76171875 45.5625 C-14.39180268 45.53609807 -19.55849026 44.69046477 -24.57421875 40.125 C-30.95049668 32.27310786 -32.57397893 26.23885302 -31.57421875 16.125 C-29.08721045 8.24559987 -23.51797654 4.08716893 -16.68359375 -0.0078125 C-11.53921702 -2.12272293 -5.19931865 -1.76729496 0 0 Z " fill="#FEFCFC" transform="translate(264.57421875,361.875)"/>
</svg>
